<svg xmlns="http://www.w3.org/2000/svg" viewBox="0 0 48 48" fill="#ffffff"><path d="M14.34 30H4.92C4.32 28.1 4 26.09 4 24s.32-4.1.92-6h9.42C14.11 19.97 14 22 14 24S14.11 28.03 14.34 30zM14.77 33c.7 4 1.89 7.62 3.53 10.17C12.98 41.6 8.59 37.87 6.14 33H14.77zM14.77 15H6.14c2.45-4.87 6.84-8.6 12.16-10.17C16.66 7.38 15.47 11 14.77 15zM28.29 33v6.37c-1.2 2.77-2.66 4.46-4.07 4.62C24.15 44 24.07 44 24 44s-.15 0-.22-.01c-2.3-.26-4.72-4.56-5.96-10.99H28.29zM17.82 15c1.24-6.43 3.66-10.73 5.96-10.99C23.85 4 23.93 4 24 4s.15 0 .22.01c2.3.26 4.72 4.56 5.96 10.99H17.82zM30.85 20.16c-.27.04-.54.13-.79.24-1.08.51-1.77 1.59-1.77 2.76V30H17.35C17.13 28.12 17 26.11 17 24s.13-4.12.35-6h13.3C30.73 18.7 30.8 19.42 30.85 20.16zM33.23 15c-.7-4-1.89-7.62-3.53-10.17 5.32 1.57 9.71 5.3 12.16 10.17H33.23zM44 24c0 1.83-.25 3.6-.71 5.29l-9.35-7.91c-.06-1.14-.15-2.27-.28-3.38h9.42C43.68 19.9 44 21.91 44 24zM45.85 34.98c-.15.41-.54.68-.98.68h-5.04l3.108 6.84c.459 1.009.009 2.199-1.003 2.652l-.989.443c-1.005.45-2.184.004-2.639-.998L35.23 37.82l-3.1 3.72c-.28.34-.74.46-1.15.31-.41-.15-.69-.54-.69-.98V23.16c0-.4.24-.77.6-.94.37-.17.81-.11 1.12.15l13.54 11.46C45.88 34.11 46 34.57 45.85 34.98z"></path></svg>
